<?xml version="1.0" encoding="utf-8"?>
<!-- Generator: Adobe Illustrator 21.1.0, SVG Export Plug-In . SVG Version: 6.00 Build 0)  -->
<!DOCTYPE svg PUBLIC "-//W3C//DTD SVG 1.1//EN" "http://www.w3.org/Graphics/SVG/1.1/DTD/svg11.dtd">
<svg version="1.1" id="Layer_1" xmlns="http://www.w3.org/2000/svg" xmlns:xlink="http://www.w3.org/1999/xlink" x="0px" y="0px"
	 viewBox="0 0 50 50" style="enable-background:new 0 0 50 50;" xml:space="preserve">
<style type="text/css">
	.st0{fill:#E2231A;}
	.st1{fill:#FFFFFF;}
	.st2{fill:#231F20;}
</style>
<g>
	<rect x="1.8" y="4.2" class="st0" width="41.9" height="41.9"/>
	<path class="st1" d="M36.9,17.9v-7.6h2V7.6h-4.7V15h-3.7h-0.1c-0.9-0.3-1-2.1-1-2.1v-0.2c1.1-0.4,1.9-1.5,1.9-2.8
		c0-1.6-1.3-2.8-2.8-2.8l0,0c-1.6,0-2.8,1.3-2.8,2.8c0,1.3,0.8,2.4,1.9,2.8v0.2c0,0-0.1,1.8-1,2.1h-7c-0.9-0.3-1.1-2.1-1.1-2.1v-0.2
		c1.1-0.4,1.9-1.5,1.9-2.8c0-1.6-1.3-2.8-2.8-2.8l0,0c-1.6,0-2.8,1.3-2.8,2.8c0,1.3,0.8,2.4,1.9,2.8v0.2c0,0-0.1,1.8-1,2.1H8.9v7.5
		h-2v2.7h4.7v-7.4h1.6l2.7,7.7l-5.6,5.6v7.8H8.2v2.7h4.9v-9.2l4.2-4.2l4.1,4.1V39h-2.1v2.7h7V39h-2.1v-6.7l4.1-4.1l4.2,4.2v9.2h4.9
		v-2.7h-2.1v-7.8l-5.6-5.6l2.7-7.7h4.5V17.9z M22.9,29.7l-4.2-4.2l2.7-7.7h1.4H23h1.4l2.7,7.7L22.9,29.7z"/>
	<path class="st2" d="M45.4,6c0-0.9,0.7-1.5,1.5-1.5s1.5,0.7,1.5,1.5c0,0.9-0.7,1.5-1.5,1.5C46,7.5,45.4,6.9,45.4,6z M46.9,7.8
		c1,0,1.8-0.8,1.8-1.8s-0.8-1.8-1.8-1.8S45,5,45,6S45.9,7.8,46.9,7.8z M46.5,6.1h0.4L47.4,7h0.4l-0.6-0.9c0.3,0,0.5-0.2,0.5-0.6
		S47.5,4.9,47,4.9h-0.8V7h0.3C46.5,7,46.5,6.1,46.5,6.1z M46.5,5.9V5.2h0.4c0.2,0,0.5,0,0.5,0.3s-0.2,0.3-0.5,0.3L46.5,5.9L46.5,5.9
		z"/>
</g>
</svg>
